<svg xmlns="http://www.w3.org/2000/svg" viewBox="0 0 280 280" fill="none">
  <g opacity="0.9">
    <path fill="#aea38f" d="M42 48c18-8 36 4 44 22-6 14-20 22-34 18-12-4-18-22-10-40z"/>
    <path fill="#353630" d="M198 32c28 12 40 44 28 72-10 22-36 32-58 22-20-10-30-38-18-62 8-16 26-28 48-32z"/>
    <path fill="#e58435" opacity="0.85" d="M228 168c8 16 4 34-10 44-16 10-36 6-46-10-8-14-4-32 10-42 14-10 34-6 46 8z"/>
    <path fill="#ac6b32" opacity="0.7" d="M56 196c10 18 6 40-12 52-18 12-42 8-54-12-10-18-4-40 14-52 16-10 38-4 52 12z"/>
    <path fill="#9c968a" opacity="0.6" d="M140 108c-22 0-40 18-40 40s18 40 40 40 40-18 40-40-18-40-40-40z"/>
    <path fill="#f5f2e4" opacity="0.35" d="M168 220c6 10 4 22-6 28-10 6-22 4-28-6-6-10-4-22 6-28 10-6 22-4 28 6z"/>
    <path fill="#282827" opacity="0.5" d="M112 24l20 36-36 20-20-36 36-20z"/>
    <path fill="#eeb746" opacity="0.45" d="M24 120l14 24-24 14-14-24 24-14z"/>
  </g>
</svg>