<?xml version="1.0" standalone="no"?>
<!DOCTYPE svg PUBLIC "-//W3C//DTD SVG 20010904//EN"
 "http://www.w3.org/TR/2001/REC-SVG-20010904/DTD/svg10.dtd">
<svg version="1.0" xmlns="http://www.w3.org/2000/svg"
 width="835.000000pt" height="299.000000pt" viewBox="0 0 835.000000 299.000000"
 preserveAspectRatio="xMidYMid meet">

<g transform="translate(0.000000,299.000000) scale(0.100000,-0.100000)"
fill="#f4efe6" stroke="none">
<path d="M905 2438 c4 -13 31 -85 61 -160 l54 -137 0 -600 0 -600 -50 -143
c-27 -79 -50 -148 -50 -153 0 -6 37 -41 81 -78 l81 -67 344 0 c303 0 344 2
344 15 0 9 -18 71 -40 139 -38 118 -40 128 -40 254 l0 131 33 5 c17 3 53 8 78
11 25 3 74 19 108 35 35 17 65 30 67 30 14 0 -1 -84 -38 -211 l-41 -147 68
-76 68 -76 559 0 558 0 0 50 c0 28 3 50 6 50 3 0 20 -11 38 -25 142 -109 395
-126 569 -39 66 34 146 98 182 147 l27 38 33 -48 c120 -177 387 -243 607 -150
34 14 37 14 54 -4 17 -19 48 -19 1245 -19 l1228 0 62 52 c128 110 115 90 148
238 17 74 44 193 61 263 16 71 28 133 24 138 -3 5 -48 9 -100 9 l-94 0 0 154
0 155 26 13 c15 7 47 38 71 69 l44 56 -28 259 -28 259 -1270 3 c-1250 2 -1271
2 -1306 -17 l-35 -20 -75 26 c-64 23 -90 27 -194 27 -136 1 -222 -21 -321 -80
l-54 -33 0 50 0 49 -1031 0 -1031 0 -50 45 c-62 55 -172 110 -252 124 -36 7
-210 11 -434 11 l-373 0 6 -22z m880 -163 c64 -32 86 -50 120 -97 66 -89 77
-145 73 -378 -3 -188 -4 -197 -30 -253 -37 -78 -78 -129 -136 -165 -63 -41
-116 -54 -247 -61 l-110 -6 -3 -200 c-3 -192 -2 -203 23 -272 14 -39 25 -74
25 -77 0 -3 -88 -6 -195 -6 -157 0 -195 3 -195 13 0 8 9 40 20 72 19 56 20 84
20 694 l0 636 -24 67 c-13 37 -21 70 -18 73 4 4 140 5 303 3 l296 -3 78 -40z
m2730 -115 c41 -6 97 -23 133 -41 l64 -31 47 26 48 26 6 -177 c3 -98 4 -179 1
-182 -5 -5 -215 -39 -247 -40 -17 -1 -18 5 -12 54 13 100 -24 145 -117 145
-114 -1 -118 -17 -118 -432 0 -312 1 -335 20 -365 26 -44 54 -56 113 -50 41 3
56 11 79 36 27 30 28 36 28 131 l0 100 -55 0 -56 0 3 108 3 107 188 3 187 2 0
-345 0 -345 -55 0 c-50 0 -56 3 -81 34 l-28 34 -32 -25 c-41 -31 -114 -59
-179 -67 -65 -9 -183 15 -240 48 -71 42 -132 119 -156 196 -19 64 -20 88 -17
421 l3 354 28 60 c64 136 178 208 357 223 8 1 47 -3 85 -8z m-2085 -15 c0 -3
-9 -38 -20 -77 -16 -59 -20 -103 -20 -233 0 -88 4 -166 8 -173 6 -9 38 -12
123 -10 l114 3 3 177 c2 157 0 184 -18 235 -11 31 -20 63 -20 70 0 10 39 13
175 13 133 0 175 -3 175 -12 0 -7 -9 -42 -20 -76 -19 -60 -20 -93 -20 -546 0
-457 1 -486 20 -541 11 -32 20 -64 20 -72 0 -10 -35 -13 -175 -13 -133 0 -175
3 -175 13 0 6 9 36 20 65 17 45 20 76 20 240 0 133 -4 192 -12 200 -16 16
-210 16 -226 0 -8 -8 -12 -64 -12 -188 0 -167 3 -191 36 -307 l6 -23 -176 0
c-134 0 -176 3 -176 13 0 6 9 41 20 75 19 60 20 93 20 536 0 404 -2 480 -16
531 -9 33 -19 70 -21 83 l-5 22 176 0 c97 0 176 -2 176 -5z m973 -15 c-1 -8
-9 -40 -18 -70 -12 -45 -15 -126 -15 -465 0 -441 0 -440 53 -479 35 -26 101
-27 139 -2 57 37 58 48 58 478 0 332 -3 403 -16 453 -9 33 -19 70 -21 83 l-5
22 176 0 c97 0 176 -4 176 -9 0 -5 -8 -28 -17 -52 -15 -39 -18 -100 -23 -499
l-5 -455 -28 -57 c-93 -190 -322 -264 -549 -178 -75 28 -150 96 -185 168 l-28
57 -5 465 c-4 414 -7 469 -22 504 -10 21 -15 42 -12 47 3 5 81 8 177 7 146 -3
172 -5 170 -18z m1903 -2 c-33 -117 -36 -165 -36 -573 0 -376 2 -415 17 -431
26 -26 185 -14 276 20 57 21 69 23 73 11 6 -15 -17 -130 -42 -217 l-15 -48
-304 0 c-346 0 -317 -9 -290 90 12 45 15 143 15 535 0 436 -2 487 -19 552 -10
40 -16 74 -13 77 3 4 82 6 175 6 l169 0 -6 -22z m1079 -6 c11 -52 23 -227 16
-235 -4 -4 -30 2 -57 15 -43 19 -66 22 -184 22 l-135 1 -3 -129 c-2 -92 1
-132 10 -143 10 -13 29 -15 99 -10 48 3 101 12 117 21 16 8 32 12 36 9 9 -9 8
-293 -1 -293 -5 1 -33 9 -63 20 -62 22 -170 26 -188 8 -19 -19 -16 -272 3
-288 11 -9 50 -11 142 -8 105 4 140 10 196 30 56 21 69 23 74 12 3 -8 -9 -71
-27 -139 l-33 -125 -339 0 c-264 0 -338 3 -338 13 0 6 9 36 20 65 19 50 20 76
20 552 0 476 -1 502 -20 552 -11 29 -20 59 -20 66 0 9 74 12 334 12 l334 0 7
-28z m820 16 c8 -24 21 -239 15 -249 -4 -5 -32 2 -69 16 -57 23 -73 25 -184
23 l-122 -3 -3 -129 c-2 -86 1 -133 9 -142 21 -26 113 -17 237 21 l22 7 0
-151 c0 -83 -4 -151 -8 -151 -4 0 -33 9 -65 20 -63 22 -166 27 -185 8 -8 -8
-12 -55 -12 -144 0 -106 3 -134 15 -144 12 -10 47 -11 138 -8 113 5 167 17
250 53 13 5 17 2 17 -11 0 -22 -49 -245 -56 -256 -3 -5 -156 -8 -340 -8 -260
0 -334 3 -334 13 0 6 9 36 20 65 19 50 20 76 20 552 0 476 -1 502 -20 552 -11
29 -20 59 -20 66 0 9 74 12 335 12 260 0 337 -3 340 -12z"/>
<path d="M1463 2073 c-10 -4 -13 -64 -13 -254 l0 -249 60 0 c76 0 120 18 151
61 23 32 24 41 24 189 0 171 -9 207 -63 233 -28 15 -138 28 -159 20z"/>
</g>
</svg>
