<?xml version="1.0" encoding="UTF-8"?>
<svg xmlns="http://www.w3.org/2000/svg"
     width="1456" height="286"
     viewBox="0 0 1456 286"
     role="img"
     aria-label="The Other Guys"
     preserveAspectRatio="xMidYMid meet">
  <title>The Other Guys</title>
  <path d="M 1037.00 275.50 L 1022.00 274.50 L 1021.00 273.50 L 1011.00 271.50 L 1000.00 266.50 L 991.00 260.50 L 978.50 248.00 L 974.00 241.50 L 973.00 241.50 L 959.00 254.50 L 525.00 254.50 L 524.50 243.00 L 523.00 241.50 L 516.50 250.00 L 510.00 256.50 L 494.00 267.50 L 492.00 267.50 L 487.00 270.50 L 481.00 272.50 L 478.00 272.50 L 477.00 273.50 L 464.00 274.50 L 463.00 275.50 L 454.00 275.50 L 453.00 274.50 L 441.00 273.50 L 429.00 269.50 L 418.00 263.50 L 410.00 257.50 L 398.50 245.00 L 392.50 234.00 L 390.50 232.00 L 390.50 230.00 L 387.50 225.00 L 382.50 210.00 L 382.50 207.00 L 381.00 205.50 L 378.50 207.00 L 378.50 210.00 L 376.50 215.00 L 376.50 219.00 L 373.50 228.00 L 371.50 241.00 L 358.00 254.50 L 147.00 254.50 L 145.50 256.00 L 146.50 257.00 L 146.50 260.00 L 149.50 269.00 L 149.00 272.50 L 58.00 272.50 L 36.50 254.00 L 41.50 240.00 L 41.50 237.00 L 43.50 233.00 L 45.50 223.00 L 49.50 213.00 L 49.50 111.00 L 47.00 109.50 L 30.00 115.50 L 9.50 94.00 L 10.50 92.00 L 10.50 85.00 L 11.50 84.00 L 13.50 59.00 L 14.50 58.00 L 14.50 50.00 L 15.50 49.00 L 15.50 41.00 L 16.50 40.00 L 18.50 15.00 L 20.00 11.50 L 69.00 11.50 L 70.00 12.50 L 95.00 12.50 L 96.00 11.50 L 99.00 12.50 L 101.00 11.50 L 161.00 11.50 L 162.50 13.00 L 165.50 38.00 L 167.00 39.50 L 170.00 39.50 L 171.00 38.50 L 173.00 39.50 L 365.00 39.50 L 366.00 38.50 L 369.00 38.50 L 370.50 43.00 L 370.50 48.00 L 371.50 49.00 L 371.50 55.00 L 372.50 56.00 L 372.50 61.00 L 373.50 62.00 L 376.50 85.00 L 378.00 86.50 L 380.50 83.00 L 380.50 80.00 L 382.50 75.00 L 382.50 71.00 L 384.50 67.00 L 384.50 64.00 L 386.50 58.00 L 394.50 43.00 L 403.50 32.00 L 412.00 24.50 L 425.00 16.50 L 427.00 16.50 L 430.00 14.50 L 439.00 11.50 L 449.00 10.50 L 450.00 9.50 L 468.00 9.50 L 469.00 10.50 L 475.00 10.50 L 476.00 11.50 L 479.00 11.50 L 480.00 12.50 L 483.00 12.50 L 489.00 14.50 L 507.00 24.50 L 522.00 39.50 L 901.00 39.50 L 902.00 40.50 L 905.00 40.50 L 906.00 41.50 L 909.00 41.50 L 915.00 43.50 L 927.00 49.50 L 941.00 62.50 L 944.00 63.50 L 951.50 71.00 L 957.00 79.50 L 958.50 78.00 L 960.50 71.00 L 971.50 48.00 L 978.50 38.00 L 991.00 25.50 L 1000.00 19.50 L 1010.00 14.50 L 1019.00 11.50 L 1029.00 10.50 L 1030.00 9.50 L 1048.00 9.50 L 1049.00 10.50 L 1055.00 10.50 L 1056.00 11.50 L 1059.00 11.50 L 1060.00 12.50 L 1063.00 12.50 L 1072.00 15.50 L 1075.00 17.50 L 1081.00 17.50 L 1082.00 16.50 L 1091.00 15.50 L 1092.00 14.50 L 1100.00 13.50 L 1105.00 11.50 L 1109.00 11.50 L 1110.50 16.00 L 1111.50 26.00 L 1112.50 27.00 L 1112.50 31.00 L 1113.50 32.00 L 1113.50 36.00 L 1118.00 39.50 L 1351.00 39.50 L 1352.00 38.50 L 1360.00 37.50 L 1361.00 36.50 L 1371.00 36.50 L 1372.00 35.50 L 1387.00 36.50 L 1388.00 37.50 L 1392.00 37.50 L 1393.00 38.50 L 1400.00 39.50 L 1417.00 47.50 L 1426.00 54.50 L 1443.50 60.00 L 1442.50 70.00 L 1441.50 71.00 L 1441.50 91.00 L 1442.50 92.00 L 1442.50 102.00 L 1443.50 103.00 L 1443.50 114.00 L 1444.50 115.00 L 1445.50 134.00 L 1438.00 136.50 L 1435.00 136.50 L 1433.50 139.00 L 1435.50 141.00 L 1440.50 151.00 L 1442.50 157.00 L 1442.50 160.00 L 1443.50 161.00 L 1443.50 164.00 L 1444.50 165.00 L 1444.50 173.00 L 1445.50 174.00 L 1444.50 194.00 L 1443.50 195.00 L 1442.50 204.00 L 1439.50 213.00 L 1433.50 225.00 L 1423.50 238.00 L 1411.00 248.50 L 1402.00 253.50 L 1390.00 257.50 L 1386.00 257.50 L 1385.00 258.50 L 1374.00 258.50 L 1373.00 259.50 L 1370.00 259.50 L 1369.00 258.50 L 1359.00 258.50 L 1358.00 257.50 L 1350.00 256.50 L 1341.00 252.50 L 1339.00 252.50 L 1330.00 247.50 L 1321.00 239.50 L 1319.50 241.00 L 1319.50 254.00 L 1318.00 255.50 L 1317.00 254.50 L 1224.00 254.50 L 1223.50 225.00 L 1224.50 224.00 L 1224.50 220.00 L 1223.00 218.50 L 1214.50 232.00 L 1201.00 245.50 L 1192.00 251.50 L 1180.00 256.50 L 1172.00 257.50 L 1171.00 258.50 L 1147.00 258.50 L 1146.00 257.50 L 1141.00 257.50 L 1140.00 256.50 L 1134.00 255.50 L 1120.00 248.50 L 1118.50 250.00 L 1118.00 272.50 L 1079.00 272.50 L 1066.00 267.50 L 1055.00 272.50 L 1052.00 272.50 L 1047.00 274.50 L 1038.00 274.50 L 1037.00 275.50 Z M 463.50 237.00 L 476.00 235.50 L 482.00 233.50 L 493.00 227.50 L 504.50 216.00 L 512.50 200.00 L 512.50 196.00 L 513.50 195.00 L 513.50 75.00 L 512.50 74.00 L 512.50 71.00 L 510.50 65.00 L 507.50 59.00 L 503.50 53.00 L 494.00 43.50 L 486.00 38.50 L 484.00 38.50 L 475.00 34.50 L 464.00 33.50 L 463.00 32.50 L 456.00 32.50 L 455.00 33.50 L 448.00 33.50 L 447.00 34.50 L 437.00 36.50 L 425.00 43.50 L 413.50 56.00 L 407.50 68.00 L 407.50 71.00 L 405.50 76.00 L 405.50 195.00 L 406.50 196.00 L 407.50 203.00 L 412.50 213.00 L 418.50 221.00 L 426.00 227.50 L 437.00 233.50 L 443.00 235.50 L 455.00 236.50 L 456.00 237.50 L 463.50 237.00 Z M 1039.50 237.00 L 1046.00 236.50 L 1058.00 232.50 L 1066.00 227.50 L 1071.00 222.50 L 1072.50 223.00 L 1074.50 227.00 L 1082.00 234.50 L 1092.00 234.50 L 1093.50 233.00 L 1093.50 127.00 L 1092.00 125.50 L 1044.00 125.50 L 1042.50 127.00 L 1042.50 157.00 L 1044.00 158.50 L 1057.50 159.00 L 1057.50 190.00 L 1053.50 197.00 L 1051.00 199.50 L 1048.00 201.50 L 1041.00 202.50 L 1040.00 203.50 L 1034.00 202.50 L 1030.00 200.50 L 1025.50 196.00 L 1022.50 188.00 L 1022.50 85.00 L 1023.50 84.00 L 1023.50 79.00 L 1026.50 72.00 L 1030.00 68.50 L 1033.00 67.50 L 1046.00 67.50 L 1050.00 69.50 L 1055.50 75.00 L 1057.50 81.00 L 1057.50 91.00 L 1055.50 93.00 L 1055.50 98.00 L 1057.00 99.50 L 1088.00 94.50 L 1091.50 92.00 L 1091.50 42.00 L 1088.00 39.50 L 1079.00 44.50 L 1077.00 44.50 L 1071.00 40.50 L 1059.00 35.50 L 1056.00 35.50 L 1051.00 33.50 L 1035.00 32.50 L 1034.00 33.50 L 1028.00 33.50 L 1027.00 34.50 L 1020.00 35.50 L 1017.00 37.50 L 1013.00 38.50 L 1004.00 44.50 L 994.50 55.00 L 987.50 70.00 L 986.50 78.00 L 985.50 79.00 L 985.50 193.00 L 991.50 211.00 L 1002.00 224.50 L 1010.00 230.50 L 1016.00 233.50 L 1022.00 235.50 L 1026.00 235.50 L 1027.00 236.50 L 1034.00 236.50 L 1035.00 237.50 L 1039.50 237.00 Z M 113.50 235.00 L 114.50 234.00 L 112.50 230.00 L 112.50 227.00 L 108.50 215.00 L 108.50 72.00 L 111.00 68.50 L 128.00 68.50 L 145.00 74.50 L 146.50 72.00 L 145.50 71.00 L 145.50 64.00 L 144.50 63.00 L 144.50 56.00 L 143.50 55.00 L 142.50 39.00 L 140.00 35.50 L 42.00 35.50 L 39.50 38.00 L 39.50 45.00 L 38.50 46.00 L 38.50 53.00 L 37.50 54.00 L 37.50 61.00 L 36.50 62.00 L 35.50 73.00 L 37.00 74.50 L 54.00 68.50 L 71.00 68.50 L 72.50 70.00 L 72.50 216.00 L 71.50 217.00 L 71.50 220.00 L 70.50 221.00 L 70.50 224.00 L 68.50 228.00 L 67.50 234.00 L 69.00 235.50 L 113.50 235.00 Z M 1386.50 220.00 L 1396.00 217.50 L 1402.00 214.50 L 1405.00 212.50 L 1415.50 201.00 L 1418.50 195.00 L 1420.50 189.00 L 1420.50 184.00 L 1421.50 183.00 L 1421.50 170.00 L 1420.50 169.00 L 1420.50 165.00 L 1419.50 164.00 L 1418.50 158.00 L 1412.50 148.00 L 1402.00 137.50 L 1379.00 122.50 L 1376.00 121.50 L 1366.50 114.00 L 1363.50 110.00 L 1361.50 105.00 L 1361.50 97.00 L 1363.50 93.00 L 1368.00 88.50 L 1371.00 87.50 L 1380.00 87.50 L 1386.50 92.00 L 1388.50 97.00 L 1388.50 101.00 L 1385.50 108.00 L 1387.00 110.50 L 1418.00 104.50 L 1419.50 103.00 L 1418.50 100.00 L 1418.50 83.00 L 1417.50 82.00 L 1418.50 80.00 L 1418.50 76.00 L 1417.00 74.50 L 1414.00 74.50 L 1413.00 75.50 L 1405.00 67.50 L 1393.00 61.50 L 1385.00 60.50 L 1384.00 59.50 L 1365.00 59.50 L 1364.00 60.50 L 1360.00 60.50 L 1354.00 62.50 L 1348.00 65.50 L 1345.00 67.50 L 1335.50 78.00 L 1330.50 91.00 L 1330.50 113.00 L 1331.50 114.00 L 1331.50 117.00 L 1333.50 123.00 L 1335.50 125.00 L 1336.50 128.00 L 1346.00 138.50 L 1354.00 144.50 L 1357.00 145.50 L 1362.00 149.50 L 1365.00 150.50 L 1379.00 159.50 L 1386.50 167.00 L 1389.50 174.00 L 1389.50 182.00 L 1387.50 187.00 L 1384.00 190.50 L 1380.00 192.50 L 1376.00 192.50 L 1374.00 193.50 L 1365.00 190.50 L 1361.50 187.00 L 1359.50 182.00 L 1359.50 176.00 L 1363.50 168.00 L 1361.00 166.50 L 1356.00 168.50 L 1352.00 168.50 L 1351.00 169.50 L 1347.00 169.50 L 1346.00 170.50 L 1342.00 170.50 L 1341.00 171.50 L 1337.00 171.50 L 1336.00 172.50 L 1332.00 172.50 L 1330.00 173.50 L 1328.50 175.00 L 1328.50 189.00 L 1329.50 190.00 L 1330.50 197.00 L 1333.50 203.00 L 1340.00 210.50 L 1347.00 215.50 L 1362.00 220.50 L 1386.50 220.00 Z M 255.50 217.00 L 256.50 216.00 L 255.50 215.00 L 255.50 212.00 L 254.50 211.00 L 254.50 208.00 L 251.50 199.00 L 251.50 81.00 L 252.50 80.00 L 252.50 76.00 L 253.50 75.00 L 253.50 72.00 L 256.50 63.00 L 255.00 61.50 L 217.00 61.50 L 215.50 63.00 L 220.50 78.00 L 220.50 123.00 L 192.00 123.50 L 190.50 122.00 L 190.50 77.00 L 191.50 76.00 L 191.50 73.00 L 192.50 72.00 L 192.50 69.00 L 194.50 63.00 L 193.00 61.50 L 155.00 61.50 L 153.50 63.00 L 158.50 78.00 L 158.50 201.00 L 153.50 216.00 L 155.00 217.50 L 193.00 217.50 L 194.50 215.00 L 193.50 214.00 L 193.50 211.00 L 190.50 202.00 L 190.50 155.00 L 192.00 152.50 L 218.00 152.50 L 220.50 156.00 L 220.50 200.00 L 219.50 201.00 L 219.50 205.00 L 217.50 209.00 L 216.50 216.00 L 218.00 217.50 L 255.50 217.00 Z M 349.50 217.00 L 351.50 213.00 L 351.50 209.00 L 352.50 208.00 L 352.50 204.00 L 353.50 203.00 L 353.50 199.00 L 354.50 198.00 L 354.50 194.00 L 356.50 188.00 L 356.50 186.00 L 355.00 184.50 L 337.00 190.50 L 309.00 190.50 L 305.50 187.00 L 305.50 156.00 L 308.00 152.50 L 324.00 152.50 L 325.00 153.50 L 333.00 154.50 L 337.00 156.50 L 338.50 155.00 L 338.50 123.00 L 337.00 121.50 L 335.00 121.50 L 331.00 123.50 L 323.00 124.50 L 322.00 125.50 L 310.00 125.50 L 308.00 124.50 L 305.50 122.00 L 305.50 91.00 L 307.00 89.50 L 337.00 89.50 L 351.00 94.50 L 352.50 93.00 L 352.50 87.00 L 351.50 86.00 L 349.50 63.00 L 348.00 61.50 L 271.00 61.50 L 269.50 64.00 L 271.50 68.00 L 271.50 71.00 L 273.50 76.00 L 273.50 80.00 L 274.50 81.00 L 274.50 199.00 L 273.50 200.00 L 273.50 203.00 L 272.50 204.00 L 272.50 207.00 L 269.50 216.00 L 271.00 217.50 L 349.50 217.00 Z M 590.50 217.00 L 591.50 216.00 L 589.50 212.00 L 589.50 209.00 L 586.50 200.00 L 586.50 92.00 L 588.00 90.50 L 603.00 90.50 L 616.00 95.50 L 618.50 94.00 L 617.50 92.00 L 617.50 85.00 L 616.50 84.00 L 616.50 77.00 L 615.50 76.00 L 614.50 63.00 L 613.00 61.50 L 528.00 61.50 L 526.50 63.00 L 526.50 71.00 L 525.50 72.00 L 523.50 94.00 L 526.00 95.50 L 529.00 93.50 L 538.00 90.50 L 553.00 90.50 L 555.50 94.00 L 555.50 199.00 L 554.50 200.00 L 554.50 203.00 L 553.50 204.00 L 553.50 207.00 L 550.50 216.00 L 552.00 217.50 L 590.50 217.00 Z M 726.50 217.00 L 727.50 216.00 L 726.50 215.00 L 726.50 212.00 L 725.50 211.00 L 725.50 208.00 L 722.50 199.00 L 722.50 80.00 L 723.50 79.00 L 723.50 76.00 L 724.50 75.00 L 724.50 72.00 L 727.50 63.00 L 726.00 61.50 L 689.00 61.50 L 687.50 63.00 L 687.50 66.00 L 691.50 78.00 L 691.50 123.00 L 664.00 123.50 L 661.50 122.00 L 661.50 77.00 L 663.50 73.00 L 665.50 63.00 L 664.00 61.50 L 627.00 61.50 L 625.50 63.00 L 625.50 65.00 L 629.50 77.00 L 629.50 202.00 L 628.50 203.00 L 628.50 206.00 L 627.50 207.00 L 627.50 210.00 L 625.50 216.00 L 627.00 217.50 L 664.00 217.50 L 665.50 216.00 L 665.50 214.00 L 664.50 213.00 L 664.50 210.00 L 661.50 201.00 L 661.50 156.00 L 664.00 152.50 L 690.00 152.50 L 691.50 156.00 L 691.50 201.00 L 690.50 202.00 L 687.50 216.00 L 689.00 217.50 L 726.50 217.00 Z M 821.50 217.00 L 822.50 216.00 L 822.50 212.00 L 823.50 211.00 L 823.50 207.00 L 824.50 206.00 L 824.50 202.00 L 825.50 201.00 L 825.50 197.00 L 826.50 196.00 L 826.50 192.00 L 828.50 186.00 L 827.00 184.50 L 813.00 189.50 L 808.00 189.50 L 807.00 190.50 L 781.00 190.50 L 777.50 188.00 L 777.50 154.00 L 781.00 152.50 L 797.00 152.50 L 809.00 156.50 L 810.50 155.00 L 810.50 122.00 L 809.00 120.50 L 802.00 123.50 L 792.00 124.50 L 791.00 125.50 L 782.00 125.50 L 778.00 123.50 L 777.50 91.00 L 779.00 89.50 L 808.00 89.50 L 823.00 94.50 L 824.50 92.00 L 823.50 91.00 L 823.50 84.00 L 822.50 83.00 L 820.50 63.00 L 819.00 61.50 L 743.00 61.50 L 741.50 63.00 L 741.50 66.00 L 745.50 78.00 L 745.50 200.00 L 744.50 201.00 L 744.50 205.00 L 743.50 206.00 L 741.50 216.00 L 743.00 217.50 L 821.50 217.00 Z M 937.50 217.00 L 938.50 216.00 L 934.50 210.00 L 930.50 201.00 L 915.50 156.00 L 915.50 153.00 L 918.00 151.50 L 925.50 143.00 L 929.50 135.00 L 930.50 128.00 L 931.50 127.00 L 931.50 97.00 L 930.50 96.00 L 930.50 92.00 L 928.50 86.00 L 925.50 80.00 L 919.00 72.50 L 912.00 67.50 L 898.00 62.50 L 893.00 62.50 L 892.00 61.50 L 839.00 61.50 L 837.50 63.00 L 837.50 66.00 L 841.50 78.00 L 841.50 201.00 L 840.50 202.00 L 837.50 216.00 L 839.00 217.50 L 876.00 217.50 L 877.50 216.00 L 876.50 210.00 L 874.50 206.00 L 874.50 202.00 L 873.50 201.00 L 873.50 163.00 L 885.00 162.50 L 896.50 196.00 L 900.50 216.00 L 902.00 217.50 L 937.50 217.00 Z M 1170.50 220.00 L 1181.00 217.50 L 1190.00 212.50 L 1198.50 204.00 L 1202.50 198.00 L 1206.50 187.00 L 1206.50 182.00 L 1207.50 181.00 L 1207.50 77.00 L 1212.50 63.00 L 1211.00 61.50 L 1172.00 61.50 L 1170.50 63.00 L 1175.50 78.00 L 1175.50 180.00 L 1173.50 185.00 L 1170.00 189.50 L 1163.00 192.50 L 1157.00 192.50 L 1152.00 190.50 L 1146.50 185.00 L 1144.50 180.00 L 1144.50 78.00 L 1147.50 70.00 L 1148.50 63.00 L 1147.00 61.50 L 1110.00 61.50 L 1108.50 63.00 L 1108.50 65.00 L 1112.50 77.00 L 1112.50 181.00 L 1113.50 182.00 L 1114.50 191.00 L 1116.50 194.00 L 1117.50 198.00 L 1121.50 204.00 L 1129.00 211.50 L 1135.00 215.50 L 1150.00 220.50 L 1170.50 220.00 Z M 1292.50 217.00 L 1293.50 214.00 L 1289.50 202.00 L 1289.50 161.00 L 1292.50 152.00 L 1294.50 149.00 L 1294.50 147.00 L 1296.50 144.00 L 1301.50 128.00 L 1303.50 125.00 L 1304.50 120.00 L 1306.50 117.00 L 1311.50 101.00 L 1313.50 98.00 L 1318.50 82.00 L 1324.50 69.00 L 1328.50 63.00 L 1327.00 61.50 L 1290.00 61.50 L 1288.50 63.00 L 1290.50 68.00 L 1290.50 73.00 L 1276.50 113.00 L 1276.50 116.00 L 1274.50 122.00 L 1273.00 122.50 L 1265.50 100.00 L 1265.50 97.00 L 1259.50 81.00 L 1259.50 78.00 L 1257.50 74.00 L 1258.50 63.00 L 1257.00 61.50 L 1220.00 61.50 L 1218.50 64.00 L 1222.50 69.00 L 1227.50 79.00 L 1234.50 101.00 L 1239.50 112.00 L 1245.50 131.00 L 1249.50 139.00 L 1249.50 142.00 L 1251.50 145.00 L 1253.50 153.00 L 1257.50 161.00 L 1257.50 201.00 L 1253.50 213.00 L 1253.50 216.00 L 1255.00 217.50 L 1292.50 217.00 Z M 465.00 202.50 L 454.00 202.50 L 450.00 200.50 L 444.50 195.00 L 441.50 187.00 L 441.50 83.00 L 444.50 75.00 L 449.00 70.50 L 455.00 67.50 L 464.00 67.50 L 470.00 70.50 L 474.50 75.00 L 477.50 83.00 L 477.50 188.00 L 474.50 195.00 L 469.00 200.50 L 465.00 202.50 Z M 890.00 133.50 L 873.50 133.00 L 874.00 89.50 L 890.00 89.50 L 894.00 91.50 L 899.50 98.00 L 899.50 101.00 L 900.50 102.00 L 900.50 122.00 L 898.50 127.00 L 893.00 132.50 L 890.00 133.50 Z" fill="#f4efe6" fill-rule="evenodd"/>
</svg>
